<svg xmlns="http://www.w3.org/2000/svg" width="50" height="50" viewBox="0 0 50 50">
  <!-- Listras vermelhas e brancas -->
  <rect x="0" y="0" width="50" height="10" fill="#B22234" />
  <rect x="0" y="10" width="50" height="10" fill="#FFFFFF" />
  <rect x="0" y="20" width="50" height="10" fill="#B22234" />
  <rect x="0" y="30" width="50" height="10" fill="#FFFFFF" />
  <rect x="0" y="40" width="50" height="10" fill="#B22234" />
  
  <!-- Retângulo azul no canto superior esquerdo -->
  <rect x="0" y="0" width="20" height="14" fill="#3C3B6E" />

  <!-- Estrelas na área azul -->
  <g fill="#FFFFFF">
    <!-- Linhas de estrelas -->
    <path d="M0,16 l8,6 v-10 z" />
    <path d="M10,16 l-4.5,12 h9 z" />
    <path d="M20,16 l-8,6 h10 z" />
    <path d="M30,16 l-4.5,12 h9 z" />
    <path d="M40,16 l8,6 v-10 z" />
    <!-- Colunas de estrelas -->
    <path d="M4,20 l4,3 v-6 z" />
    <path d="M14,20 l-2.5,6 h5 z" />
    <path d="M24,20 l-4,3 h5 z" />
    <path d="M34,20 l-2.5,6 h5 z" />
    <path d="M44,20 l4,3 v-6 z" />
  </g>
</svg>